<?xml version="1.0" encoding="UTF-8" standalone="no"?>
<!DOCTYPE svg PUBLIC "-//W3C//DTD SVG 1.1//EN" "http://www.w3.org/Graphics/SVG/1.1/DTD/svg11.dtd">
<svg width="100%" height="100%" viewBox="0 0 200 200" version="1.1" xmlns="http://www.w3.org/2000/svg" xmlns:xlink="http://www.w3.org/1999/xlink" xml:space="preserve" xmlns:serif="http://www.serif.com/" style="fill-rule:evenodd;clip-rule:evenodd;stroke-linejoin:round;stroke-miterlimit:2;">
    <g id="Tangerine" transform="matrix(1.08929,0,0,1.09299,-39.2592,-525.36)">
        <path d="M145.041,580.669C183.064,578.658 186.649,611.37 186.649,612.833C186.649,641.616 157.597,663.067 127.923,663.067C95.12,663.067 68.488,636.435 68.488,603.632C68.488,570.829 95.12,544.197 127.923,544.197C145.915,544.197 162.051,552.209 172.955,564.858C163.677,561.805 153.613,560.222 144.057,560.693C126.6,561.553 111.244,568.98 104.062,584.103C98.941,594.886 99.278,604.679 102.412,612.503C110.235,632.038 136.214,639.675 152.028,623.721C155.914,619.802 155.886,613.465 151.967,609.579C148.047,605.694 141.71,605.722 137.825,609.641C132.398,615.116 123.663,611.771 120.978,605.067C119.608,601.647 119.889,597.398 122.128,592.683C126.138,584.241 135.297,581.184 145.041,580.669Z" style="fill:rgb(255,107,0);"/>
        <g transform="matrix(-0.149657,0.988738,-0.988738,-0.149657,665.766,468.415)">
            <path d="M128.432,489.119C115.27,474.846 92.246,473.151 92.246,473.151C92.246,473.151 98.619,496.197 109.695,507.799C122.145,520.841 147.027,527.932 147.027,527.932C147.027,527.932 140.997,502.745 128.432,489.119Z" style="fill:rgb(255,107,0);"/>
        </g>
        <g transform="matrix(-0.137069,0.905571,0.543508,0.0822666,-145.007,358.203)">
            <path d="M128.432,489.119C115.27,474.846 92.246,473.151 92.246,473.151C92.246,473.151 105.935,504.683 117.012,516.285C129.461,529.326 147.027,527.932 147.027,527.932C147.027,527.932 140.997,502.745 128.432,489.119Z" style="fill:rgb(255,107,0);"/>
        </g>
    </g>
</svg>
