<?xml version="1.0" encoding="UTF-8" standalone="no"?>
<!DOCTYPE svg PUBLIC "-//W3C//DTD SVG 1.1//EN" "http://www.w3.org/Graphics/SVG/1.1/DTD/svg11.dtd">
<svg width="100%" height="100%" viewBox="0 0 694 821" version="1.1" xmlns="http://www.w3.org/2000/svg" xmlns:xlink="http://www.w3.org/1999/xlink" xml:space="preserve" xmlns:serif="http://www.serif.com/" style="fill-rule:evenodd;clip-rule:evenodd;stroke-linejoin:round;stroke-miterlimit:2;">
    <g id="Huo" transform="matrix(0.932088,0,0,0.932088,-123.213,-53.131)">
        <g transform="matrix(0.912877,0,0,0.912877,57.9323,78.7211)">
            <path d="M85.391,118.756C85.391,118.756 89.498,127.49 96.068,139.727C103.433,153.441 114.362,171.035 122.246,188.005C126.968,198.169 131.241,207.529 132.772,214.801C134.653,231.607 127.92,254.994 121.532,277.409C119.521,284.467 117.22,291.364 115.638,298.129C114.895,301.305 114.471,304.37 114.114,307.455C110.939,334.888 110.495,354.1 110.495,354.1C107.081,362.019 110.738,371.22 118.657,374.635C126.576,378.049 135.777,374.391 139.191,366.473C139.191,366.473 152.614,352.812 166.953,328.986C170.189,323.609 173.017,317.72 175.455,311.302C188.535,276.868 194.259,234.293 189.992,206.971C189.077,190.83 181.728,165.909 173.807,142.109C169.595,129.454 165.438,117.241 161.342,107.461C155.706,94.003 150.751,85.239 150.751,85.239C141.502,67.202 119.349,60.068 101.313,69.317C83.276,78.566 76.142,100.719 85.391,118.756L85.391,118.756Z" style="fill:rgb(44,62,80);"/>
        </g>
        <g transform="matrix(0.912877,0,0,0.912877,50.9499,80.5747)">
            <path d="M121.193,453.279C121.193,453.279 112.609,499.031 110.843,570.199C110.01,603.749 110.307,642.988 114.265,685.81C116.363,727.286 123.15,766.328 129.885,800.125C143.192,866.899 159.454,912.809 159.454,912.809C165.422,926.738 181.576,933.202 195.505,927.234C209.434,921.266 215.898,905.112 209.93,891.183L172.82,790.127C164.46,758.808 157.912,722.053 154.702,683.12C153.035,642.134 154.292,604.709 157.119,572.822C162.938,507.198 174.7,465.629 174.7,465.629C178.108,450.864 168.887,436.109 154.122,432.701C139.356,429.293 124.601,438.514 121.193,453.279ZM121.193,453.279C121.193,453.279 121.193,453.279 121.193,453.279Z" style="fill:rgb(44,62,80);"/>
        </g>
        <g transform="matrix(0.912877,0,0,0.912877,50.9499,80.5747)">
            <path d="M178.33,32.15C178.33,32.15 215.323,78.83 240.471,134.312C251.161,157.896 260.169,182.874 262.33,206.361C267.075,285.029 229.486,345.439 214.769,445.746C209.976,478.416 206.989,515.017 208.503,557.456C211.26,651.852 221.108,722.634 231.612,775.298C254.21,888.601 286.009,923.528 286.009,923.528C297.892,936.467 318.045,937.324 330.985,925.44C343.924,913.557 344.781,893.404 332.898,880.464L285.204,763.446C273.063,713.497 263.273,645.72 258.661,555.443C256.927,516.573 258.89,482.949 263.467,453.045C279.495,348.326 320.047,285.947 316.842,203.655C316.622,174.12 308.525,141.91 297.784,111.314C274.93,46.212 238.245,-10.342 238.245,-10.342C226.519,-26.876 203.576,-30.779 187.042,-19.053C170.508,-7.327 166.604,15.616 178.33,32.15L178.33,32.15Z" style="fill:rgb(44,62,80);"/>
        </g>
        <g transform="matrix(0.912877,0,0,0.912877,89.5415,66.5636)">
            <path d="M296.063,95.175C296.063,95.175 308.758,113.171 318.709,145.419C325.619,167.812 329.954,196.855 332.287,229.204C334.072,249.971 327.831,280.335 326.038,306.803C323.916,338.116 326.046,362.957 326.046,362.957C324.324,370 328.644,377.116 335.687,378.838C342.73,380.56 349.846,376.241 351.568,369.198C351.568,369.198 358.454,356.882 366.559,337.301C369.328,330.61 372.223,323.447 374.393,315.372C382.379,285.652 385.136,249.695 383.787,225.553C382.117,203.04 378.875,182.157 375.444,163.441C372.972,149.958 369.918,137.706 367.759,126.647C360.85,91.261 355.254,69.486 355.254,69.486C348.165,53.152 329.148,45.646 312.814,52.735C296.48,59.824 288.974,78.84 296.063,95.175L296.063,95.175Z" style="fill:rgb(44,62,80);"/>
        </g>
        <g transform="matrix(0.912877,0,0,0.912877,50.9499,80.5747)">
            <path d="M315.174,473.076C315.174,473.076 310.977,515.558 313.022,578.858C314.011,609.502 315.987,645.081 321.357,683.09C324.206,713.348 333.433,746.086 343.162,775.469C359.177,823.839 377.63,862.567 377.63,862.567C384.543,875.31 400.501,880.043 413.243,873.13C425.986,866.216 430.718,850.259 423.805,837.516C423.805,837.516 397.38,794.963 378.384,743.912C370.457,722.611 363.994,699.807 360.951,678.36C357.392,641.96 356.412,607.999 357.278,578.8C359.026,519.878 367.134,480.817 367.134,480.817C369.27,466.478 359.363,453.103 345.024,450.967C330.686,448.83 317.31,458.737 315.174,473.076ZM315.174,473.076C315.174,473.076 315.174,473.076 315.174,473.076Z" style="fill:rgb(44,62,80);"/>
        </g>
        <g transform="matrix(0.864406,0,0,0.864406,95.3684,105.11)">
            <path d="M838.218,23.425C838.218,23.425 806.049,26.408 763.177,27.36C740.285,27.868 714.491,27.748 688.901,25.95C665.749,24.692 642.405,21.685 620.529,20.935C602.071,20.302 584.552,20.943 569.155,24.012C543.427,29.14 522.657,39.972 509.02,57.698C494.047,77.839 485.082,117.82 482.885,165.575C482.204,180.369 482.141,195.891 481.467,211.646C479.169,265.306 476.666,321.539 481.918,359.514C484.463,377.917 488.92,392.326 492.866,401.381C502.367,418.848 517.727,433.102 538.28,441.095C581.942,458.075 643.713,452.264 643.713,452.264C654.32,452.118 662.814,443.388 662.668,432.78C662.522,422.173 653.791,413.679 643.184,413.825L582.997,399.616C568.854,394.446 554.692,387.764 550.286,375.461C547.405,369.338 545.233,359.087 542.497,346.383C536.662,319.289 529.183,282.952 526.628,244.88C525.633,230.058 524.85,215.042 525.698,200.418C528.357,154.521 538.417,113.081 554.406,96.679C558.094,92.876 563.451,91.782 568.953,90.223C576.292,88.142 584.564,87.552 593.44,86.827C621.771,84.512 655.375,85.459 688.329,84.608C715.778,83.216 743.268,80.291 767.511,76.539C811.991,69.653 844.892,61.284 844.892,61.284C855.34,59.442 862.326,49.465 860.485,39.017C858.643,28.57 848.665,21.583 838.218,23.425Z" style="fill:rgb(44,62,80);"/>
        </g>
        <g transform="matrix(0.864406,0,0,0.864406,48.9565,169.449)">
            <path d="M575.736,192.105C595.419,190.157 614.4,187.582 633.384,186.214C641.667,185.617 649.913,185.25 658.115,185.231C687.504,185.162 716.101,187.967 744.903,187.897C757.273,187.867 769.668,187.778 782.031,186.69C826.836,182.749 870.95,173.76 918.574,166.327C927.128,165.837 933.676,158.494 933.186,149.94C932.697,141.385 925.354,134.837 916.799,135.327C868.863,133.385 824.311,128.909 779.542,128.831C767.222,128.81 754.956,129.724 742.71,130.633C714.183,132.751 686.023,137.422 656.874,138.918C648.732,139.335 640.525,139.382 632.273,139.178C613.365,138.71 594.413,136.879 574.8,135.593C559.205,135.851 546.754,148.722 547.012,164.317C547.271,179.912 560.142,192.363 575.736,192.105Z" style="fill:rgb(44,62,80);"/>
        </g>
        <g transform="matrix(0.864406,0,0,0.864406,51.6593,85.883)">
            <path d="M703.418,90.164C703.418,90.164 709.626,109.855 710.683,142.668C710.816,146.8 710.088,151.097 709.61,155.57C706.837,181.518 700.028,212.504 699.191,246.126C698.694,266.084 701.34,286.553 702.964,306.914C705.158,330.987 715.393,347.699 732.303,360.159C748.955,372.429 772.535,380.33 795.245,390.699C816.983,400.624 838.22,413.519 841.345,444.499C843.845,473.789 832.592,494.466 814.85,508.569C786.128,531.4 744.757,538.6 718.492,550.022C703.745,556.435 692.909,564.66 685.938,572.732C680.585,580.623 675.58,591.158 672.991,603.928C669.886,619.243 671.304,637.77 668.765,654.595C664.64,681.924 656.775,703.062 656.775,703.062C657.612,722.705 674.239,737.974 693.882,737.137C713.525,736.3 728.794,719.673 727.957,700.03L717.389,657.809C717.036,639.136 723.709,618.268 732.159,608.986C736.785,602.212 747.801,597.071 760.421,590.359C779.594,580.162 801.243,568.188 821.152,554.092C835.432,543.981 848.92,533.048 859.33,519.44C874.742,499.295 884.391,474.277 881.998,441.214C879.917,410.367 866.813,389.881 849.606,374.114C830.873,356.95 805.807,346.544 784.17,335.023C770.42,327.702 757.5,321.061 757.942,305.416C758.439,285.612 760.773,265.761 760.465,246.401C759.94,213.441 754.805,182.855 754.058,157.288C753.929,152.859 753.553,148.579 754.034,144.536C757.809,112.778 766.73,94.487 766.73,94.487C767.923,77.016 754.707,61.863 737.235,60.67C719.764,59.477 704.611,72.693 703.418,90.164Z" style="fill:rgb(44,62,80);"/>
        </g>
        <g transform="matrix(0.864406,0,0,0.864406,51.6593,199.18)">
            <path d="M553.77,616.515C553.77,616.515 577.692,613.055 611.98,611.156C651.328,608.977 703.998,608.138 747.805,608.598C759.709,608.723 770.947,609.055 781.068,609.923C811.077,612.498 830.962,616.515 830.962,616.515C848.751,616.515 863.194,602.072 863.194,584.283C863.194,566.494 848.751,552.052 830.962,552.052C830.962,552.052 811.077,556.069 781.068,558.644C770.947,559.512 759.709,559.844 747.805,559.969C703.998,560.428 651.328,559.59 611.98,557.411C577.692,555.512 553.77,552.052 553.77,552.052C535.981,552.052 521.538,566.494 521.538,584.283C521.538,602.072 535.981,616.515 553.77,616.515Z" style="fill:rgb(44,62,80);"/>
        </g>
        <g transform="matrix(0.864406,0,0,0.864406,50.8229,152.959)">
            <path d="M790.473,804.685C790.244,804.832 790.099,805.443 789.972,805.736L790.473,804.685C790.537,804.635 790.612,804.631 790.695,804.687C796.473,808.607 778.03,814.523 767.222,818.276C747.182,825.236 721.939,831.139 696.162,831.106C654.544,831.053 611.632,821.504 597.894,798.3C594.464,792.771 592.17,784.043 589.378,773.599C583.729,752.465 578.273,725.224 574.045,696.398C562.082,614.835 556.595,522.278 556.595,522.278C556.347,510.763 546.798,501.616 535.283,501.863C523.768,502.111 514.621,511.66 514.868,523.175C514.868,523.175 513.056,642.821 523.046,732.702C525.815,757.609 529.366,780.366 534.457,797.914C538.346,811.318 543.341,822.049 548.324,829.637C568.538,859.043 617.767,875.868 672.244,880.351C689.557,881.776 707.214,882.851 724.357,882.559C764.027,881.881 800.375,874.204 822.333,861.58C835.715,853.886 844.274,843.461 849.529,833.043C855.724,818.163 861.38,794.859 864.532,766.917C867.983,736.333 868.58,700.043 869.674,664.829C870.134,650.054 870.368,635.49 871.36,621.706C875.222,568.087 880.57,526.06 880.57,526.06C880.802,509.704 867.711,496.237 851.356,496.006C835,495.774 821.534,508.864 821.302,525.22C821.302,525.22 824.461,560.528 823.865,607.416C823.722,618.618 823.237,630.477 822.178,642.607C818.595,683.653 810.333,727.706 802.735,762.677C798.94,780.139 795.113,794.919 790.473,804.685Z" style="fill:rgb(44,62,80);"/>
        </g>
    </g>
    <g transform="matrix(1.68652,0,0,1.68652,-587.099,-639.582)">
        <circle cx="634.371" cy="788.226" r="26.501" style="fill:rgb(255,0,0);"/>
    </g>
</svg>
